<?xml version="1.0" encoding="utf-8"?>
<!-- Generator: Adobe Illustrator 18.1.1, SVG Export Plug-In . SVG Version: 6.00 Build 0)  -->
<svg version="1.1" id="Layer_1" xmlns="http://www.w3.org/2000/svg" xmlns:xlink="http://www.w3.org/1999/xlink" x="0px" y="0px"
	 viewBox="42 191 337 259.5" enable-background="new 42 191 337 259.5" xml:space="preserve">
<g id="Guides">
</g>
<g id="Layer_1_1_">
	<g>
		<g>
			<rect x="45.6" y="257.2" fill="#302F29" width="53.4" height="4.7"/>
			
				<rect x="72.5" y="254.9" transform="matrix(0.4674 0.884 -0.884 0.4674 288.6315 83.6599)" fill="#302F29" width="4.7" height="52.9"/>
			
				<rect x="48.4" y="235.8" transform="matrix(0.8841 0.4674 -0.4674 0.8841 119.9899 -7.3808)" fill="#302F29" width="52.9" height="4.7"/>
		</g>
		<g>
			<rect x="159.8" y="285.7" fill="#F05845" width="20.7" height="53.2"/>
			<path fill="#302F29" d="M182.9,341.3h-25.4v-57.9h25.4V341.3L182.9,341.3z M162.1,336.6h16v-48.5h-16V336.6z"/>
		</g>
		<g>
			<polygon fill="#F05845" points="139.6,232.9 73,199.4 73,319 139.6,285.5 216,285.5 216,232.9 			"/>
			<path fill="#302F29" d="M70.7,322.7v-127l69.4,34.9h78.2v57.3h-78.2L70.7,322.7z M75.4,203.3v111.8l63.5-32h74.7v-47.9h-74.7
				l-0.5-0.2L75.4,203.3z"/>
		</g>
		<g>
			<line fill="none" x1="139" y1="232.9" x2="139" y2="287.9"/>
			<rect x="136.7" y="232.9" fill="#302F29" width="4.7" height="55"/>
		</g>
		<rect x="125.3" y="243" fill="#F05845" width="81.8" height="30.9"/>
		<g>
			<path fill="#FFFFFF" d="M95.9,266.9l-6.4-8.8v8.8h-3.9v-15.2h4l6.1,8.3v-8.3h3.9v15.2H95.9z"/>
			<path fill="#FFFFFF" d="M101.6,261.4c0-3.1,2.2-5.7,6-5.7s6,2.7,6,5.7c0,3.1-2.2,5.8-6,5.8C103.8,267.2,101.6,264.5,101.6,261.4z
				 M110,261.4c0-1.5-0.9-2.7-2.4-2.7s-2.4,1.2-2.4,2.7s0.9,2.7,2.4,2.7S110,262.9,110,261.4z"/>
			<path fill="#FFFFFF" d="M121.4,266.9v-15.2h7.6c3.5,0,5.3,2.3,5.3,5s-1.9,5-5.3,5h-3.7v5.1L121.4,266.9L121.4,266.9z
				 M130.2,256.8c0-1-0.9-1.6-1.9-1.6h-3.1v3.2h3.1C129.4,258.4,130.2,257.8,130.2,256.8z"/>
			<path fill="#FFFFFF" d="M141.9,266.9v-1.1c-0.7,0.8-2,1.3-3.5,1.3c-1.6,0-3.8-1.2-3.8-3.6c0-2.7,2.1-3.5,3.8-3.5
				c1.5,0,2.7,0.5,3.5,1.3v-1.1c0-0.9-0.8-1.6-2.2-1.6c-1.1,0-2.2,0.5-3.1,1.2l-1.3-2.4c1.4-1.2,3.3-1.7,5-1.7
				c2.7,0,5.1,0.9,5.1,4.4v6.9L141.9,266.9L141.9,266.9z M141.9,264.1v-0.9c-0.4-0.5-1.2-0.8-2-0.8c-0.9,0-1.7,0.4-1.7,1.3
				s0.9,1.3,1.7,1.3C140.8,264.9,141.6,264.6,141.9,264.1z"/>
			<path fill="#FFFFFF" d="M148,266.9v-11h3.5v1.3c0.7-0.9,2.1-1.6,3.5-1.6v3.4c-0.2-0.1-0.5-0.1-0.9-0.1c-0.9,0-2.1,0.4-2.6,1v7
				L148,266.9L148,266.9z"/>
			<path fill="#FFFFFF" d="M163.5,266.9l-2.4-3.9l-1,1.3v2.7h-3.5v-15.2h3.5v8.6l3.4-4.4h4.2l-4.1,5l4.2,6h-4.3V266.9z"/>
			<path fill="#FFFFFF" d="M168.7,252.9c0-1.1,0.9-2,2-2s2,0.9,2,2s-0.9,2-2,2C169.6,255,168.7,254,168.7,252.9z M169,266.9v-11h3.5
				v11H169z"/>
			<path fill="#FFFFFF" d="M182.5,266.9v-6.4c0-1.3-0.7-1.8-1.8-1.8c-1,0-1.7,0.5-2.1,1.1v7.1H175v-11h3.5v1.3
				c0.6-0.8,2-1.6,3.8-1.6c2.5,0,3.6,1.5,3.6,3.5v7.8H182.5L182.5,266.9z"/>
			<path fill="#FFFFFF" d="M188.3,269.7l1.5-2.4c0.9,0.9,2,1.3,3.4,1.3c1.2,0,2.8-0.5,2.8-2.6v-0.9c-0.9,1.1-2,1.6-3.2,1.6
				c-2.7,0-4.8-1.8-4.8-5.6c0-3.6,2-5.5,4.8-5.5c1.3,0,2.4,0.5,3.2,1.6v-1.3h3.5V266c0,4.5-3.6,5.4-6.3,5.4
				C191.3,271.4,189.7,270.9,188.3,269.7z M195.9,262.7v-2.9c-0.5-0.6-1.3-0.9-2.1-0.9c-1.4,0-2.4,0.9-2.4,2.4c0,1.6,1,2.4,2.4,2.4
				C194.6,263.7,195.5,263.3,195.9,262.7z"/>
			<path fill="#FFFFFF" d="M201.6,265c0-1.2,1-2.1,2.2-2.1s2.1,0.9,2.1,2.1s-0.9,2.1-2.1,2.1C202.6,267.1,201.6,266.2,201.6,265z"/>
		</g>
	</g>
	<g>
		<g>
			<rect x="228.2" y="293.8" fill="#4CB75C" width="145.1" height="94.5"/>
			<path fill="#302F29" d="M375.6,390.6H225.8v-99.2h149.8V390.6z M230.5,385.9h140.4v-89.8H230.5V385.9z"/>
		</g>
		<polygon fill="#FFFFFF" points="240.2,302.7 240.2,237.8 361.2,237.8 361.2,304.4 296.5,341 		"/>
		<g>
			<polyline fill="#FFFFFF" points="237.8,300.6 237.8,237.8 363.6,237.8 363.6,300.2 			"/>
			<polygon fill="#302F29" points="240.2,300.6 235.5,300.6 235.5,235.5 365.9,235.5 365.9,300.2 361.2,300.2 361.2,240.2 
				240.2,240.2 			"/>
		</g>
		
			<rect x="298.6" y="254.4" transform="matrix(0.5457 0.838 -0.838 0.5457 422.4659 -97.2614)" fill="#302F29" width="4.7" height="173.1"/>
		
			<rect x="214.4" y="338.6" transform="matrix(0.838 0.5456 -0.5456 0.838 234.7723 -108.966)" fill="#302F29" width="173.1" height="4.7"/>
		<g>
			<path fill="#4CB75C" d="M256.8,269.6l2-3.1c1.1,1.1,2.7,2,4.9,2c1.3,0,2.1-0.5,2.1-1.2c0-2-8.6-0.3-8.6-6.2c0-2.5,2.1-4.8,6-4.8
				c2.4,0,4.6,0.7,6.2,2.1l-2.1,2.9c-1.3-1.1-2.9-1.6-4.5-1.6c-1.2,0-1.6,0.4-1.6,1c0,1.9,8.6,0.5,8.6,6.1c0,3.1-2.3,5.1-6.4,5.1
				C260.5,272.1,258.4,271.1,256.8,269.6z"/>
			<path fill="#4CB75C" d="M279.1,271.8v-1.3c-0.7,0.8-2,1.6-3.8,1.6c-2.5,0-3.6-1.4-3.6-3.5v-7.9h3.5v6.4c0,1.3,0.7,1.8,1.8,1.8
				c1,0,1.6-0.5,2.1-1.1v-7.1h3.5v11H279v0.1H279.1z"/>
			<path fill="#4CB75C" d="M299,271.8v-6.7c0-0.9-0.4-1.5-1.5-1.5c-0.9,0-1.6,0.6-2,1.1v7.1H292v-6.7c0-0.9-0.4-1.5-1.4-1.5
				c-0.9,0-1.6,0.6-2,1.1v7.1h-3.5v-11h3.5v1.3c0.5-0.6,1.9-1.6,3.6-1.6c1.6,0,2.7,0.6,3.1,2c0.6-0.9,2-2,3.8-2c2,0,3.3,1,3.3,3.3v8
				L299,271.8L299,271.8z"/>
			<path fill="#4CB75C" d="M319,271.8v-6.7c0-0.9-0.4-1.5-1.5-1.5c-0.9,0-1.6,0.6-2,1.1v7.1H312v-6.7c0-0.9-0.4-1.5-1.4-1.5
				c-0.9,0-1.6,0.6-2,1.1v7.1h-3.5v-11h3.5v1.3c0.5-0.6,1.9-1.6,3.6-1.6c1.6,0,2.7,0.6,3.1,2c0.6-0.9,2-2,3.8-2c2,0,3.3,1,3.3,3.3v8
				L319,271.8L319,271.8z"/>
			<path fill="#4CB75C" d="M324.3,266.3c0-3.2,2.4-5.7,5.8-5.7c3.2,0,5.7,2.4,5.7,6.1v0.8h-7.9c0.2,0.9,1.2,1.8,2.7,1.8
				c0.8,0,2-0.3,2.7-0.9l1.5,2.3c-1.1,0.9-2.9,1.5-4.6,1.5C326.9,272.1,324.3,269.9,324.3,266.3z M330.1,263.4
				c-1.5,0-2.1,0.9-2.3,1.7h4.6C332.3,264.3,331.8,263.4,330.1,263.4z"/>
			<path fill="#4CB75C" d="M337.5,271.8v-11h3.5v1.3c0.7-0.9,2.1-1.6,3.5-1.6v3.4c-0.2-0.1-0.5-0.1-0.9-0.1c-0.9,0-2.1,0.4-2.6,1v7
				L337.5,271.8L337.5,271.8z"/>
			<path fill="#4CB75C" d="M263.4,295.2v5.5h-3.5v-15.2h3.5v1.3c0.9-1,2-1.6,3.2-1.6c2.7,0,4.8,2,4.8,5.7c0,3.8-2,5.8-4.8,5.8
				C265.4,296.7,264.3,296.3,263.4,295.2z M267.9,290.9c0-1.6-1-2.7-2.4-2.7c-0.8,0-1.6,0.4-2.1,1v3.4c0.5,0.5,1.3,1,2.1,1
				C266.8,293.6,267.9,292.6,267.9,290.9z"/>
			<path fill="#4CB75C" d="M272.6,290.9c0-3.1,2.2-5.7,6-5.7s6,2.7,6,5.7c0,3.1-2.2,5.8-6,5.8C274.8,296.7,272.6,294.1,272.6,290.9z
				 M281,290.9c0-1.5-0.9-2.7-2.4-2.7s-2.4,1.2-2.4,2.7s0.9,2.7,2.4,2.7S281,292.4,281,290.9z"/>
			<path fill="#4CB75C" d="M287.2,293.5v-5h-1.8v-3.1h1.8v-3h3.5v3h2.2v3.1h-2.3v4c0,0.6,0.4,1.1,0.9,1.1c0.4,0,0.8-0.2,0.9-0.2
				l0.7,2.7c-0.5,0.4-1.3,0.7-2.6,0.7C288.3,296.7,287.2,295.6,287.2,293.5z"/>
			<path fill="#4CB75C" d="M294.6,296.4v-15.2h3.5v15.2H294.6z"/>
			<path fill="#4CB75C" d="M308.1,296.4v-1.3c-0.7,0.8-2,1.6-3.8,1.6c-2.5,0-3.6-1.4-3.6-3.5v-7.9h3.5v6.4c0,1.3,0.7,1.8,1.8,1.8
				c1,0,1.6-0.5,2.1-1.1v-7.1h3.5v11H308v0.1H308.1z"/>
			<path fill="#4CB75C" d="M313.5,290.9c0-3.5,2.5-5.7,6-5.7c2.4,0,3.8,1,4.5,2l-2.3,2.1c-0.5-0.6-1.2-1-2-1c-1.5,0-2.6,1-2.6,2.7
				s1.1,2.7,2.6,2.7c0.9,0,1.6-0.5,2-1.1l2.3,2.1c-0.6,0.9-2.1,2-4.5,2C316,296.7,313.5,294.4,313.5,290.9z"/>
			<path fill="#4CB75C" d="M332.5,296.4l-2.4-3.9l-1,1.3v2.7h-3.5v-15.2h3.5v8.6l3.4-4.4h4.2l-4.1,5l4.2,6h-4.3V296.4z"/>
			<path fill="#4CB75C" d="M337.7,294.5c0-1.2,0.9-2.1,2.1-2.1s2.1,0.9,2.1,2.1s-0.9,2.1-2.1,2.1
				C338.6,296.7,337.7,295.7,337.7,294.5z M338.2,291.2l-0.5-9.9h4.2l-0.5,9.9H338.2z"/>
		</g>
	</g>
	<g>
		<polygon fill="#FFB600" points="256.1,323.2 110.7,323.2 110.7,409.6 198.9,409.6 217.7,442.3 236.7,409.6 256.1,409.6 		"/>
		<path fill="#302F29" d="M217.7,447l-20.2-35h-89.1v-91.1h150V412H238L217.7,447z M113.1,407.3h87.2l17.5,30.3l17.5-30.3h18.4
			v-81.7H113.1V407.3z"/>
	</g>
	<g>
		<path fill="#FFFFFF" d="M140.1,361.4l-2.5-5.1h-2v5.1h-3.9v-15.2h7.6c3.4,0,5.3,2.2,5.3,5c0,2.7-1.6,4.1-3.1,4.6l3.1,5.6H140.1z
			 M140.5,351.3c0-1-0.9-1.6-1.9-1.6h-3.1v3.2h3.1C139.7,352.8,140.5,352.3,140.5,351.3z"/>
		<path fill="#FFFFFF" d="M145.2,355.9c0-3.2,2.4-5.7,5.8-5.7c3.2,0,5.7,2.4,5.7,6.1v0.8h-7.9c0.2,0.9,1.2,1.8,2.7,1.8
			c0.8,0,2-0.3,2.7-0.9l1.5,2.3c-1.1,0.9-2.9,1.5-4.6,1.5C147.8,361.6,145.2,359.4,145.2,355.9z M151,352.9c-1.5,0-2.1,0.9-2.3,1.7
			h4.6C153.2,353.8,152.7,352.9,151,352.9z"/>
		<path fill="#FFFFFF" d="M172.3,361.4v-6.7c0-0.9-0.4-1.5-1.5-1.5c-0.9,0-1.6,0.6-2,1.1v7.1h-3.5v-6.7c0-0.9-0.4-1.5-1.4-1.5
			c-0.9,0-1.6,0.6-2,1.1v7.1h-3.5v-11h3.5v1.3c0.5-0.6,1.9-1.6,3.6-1.6c1.6,0,2.7,0.6,3.1,2c0.6-0.9,2-2,3.8-2c2,0,3.3,1,3.3,3.3v8
			L172.3,361.4L172.3,361.4z"/>
		<path fill="#FFFFFF" d="M178.1,347.4c0-1.1,0.9-2,2-2s2,0.9,2,2s-0.9,2-2,2S178.1,348.5,178.1,347.4z M178.3,361.4v-11h3.5v11
			H178.3z"/>
		<path fill="#FFFFFF" d="M191.8,361.4V355c0-1.3-0.7-1.8-1.8-1.8c-1,0-1.7,0.5-2.1,1.1v7.1h-3.5v-11h3.5v1.3c0.6-0.8,2-1.6,3.8-1.6
			c2.5,0,3.6,1.5,3.6,3.5v7.8H191.8L191.8,361.4z"/>
		<path fill="#FFFFFF" d="M205.3,361.4v-1.3c-0.9,1-2,1.6-3.2,1.6c-2.7,0-4.9-2-4.9-5.8c0-3.6,2.1-5.7,4.9-5.7
			c1.2,0,2.4,0.5,3.2,1.6v-5.5h3.5v15.2h-3.5V361.4z M205.3,357.5v-3.4c-0.5-0.6-1.3-0.9-2.1-0.9c-1.4,0-2.4,1-2.4,2.7
			c0,1.6,1,2.7,2.4,2.7C203.9,358.6,204.8,358.2,205.3,357.5z"/>
		<path fill="#FFFFFF" d="M210.7,355.9c0-3.2,2.4-5.7,5.8-5.7c3.2,0,5.7,2.4,5.7,6.1v0.8h-7.9c0.2,0.9,1.2,1.8,2.7,1.8
			c0.8,0,2-0.3,2.7-0.9l1.5,2.3c-1.1,0.9-2.9,1.5-4.6,1.5C213.3,361.6,210.7,359.4,210.7,355.9z M216.5,352.9
			c-1.5,0-2.1,0.9-2.3,1.7h4.6C218.7,353.8,218.1,352.9,216.5,352.9z"/>
		<path fill="#FFFFFF" d="M223.9,361.4v-11h3.5v1.3c0.7-0.9,2.1-1.6,3.5-1.6v3.4c-0.2-0.1-0.5-0.1-0.9-0.1c-0.9,0-2.1,0.4-2.6,1v7
			L223.9,361.4L223.9,361.4z"/>
		<path fill="#FFFFFF" d="M232,359.5c0-1.2,0.9-2.1,2.1-2.1s2.1,0.9,2.1,2.1s-0.9,2.1-2.1,2.1S232,360.7,232,359.5z M232.6,356
			l-0.5-9.9h4.2l-0.5,9.9H232.6z"/>
		<path fill="#FFFFFF" d="M132.2,386.1l-2.5-5.1h-2v5.1h-3.9v-15.2h7.6c3.4,0,5.3,2.2,5.3,5c0,2.7-1.6,4.1-3.1,4.6l3.1,5.6H132.2z
			 M132.6,375.8c0-1-0.9-1.6-1.9-1.6h-3.1v3.2h3.1C131.7,377.5,132.6,376.9,132.6,375.8z"/>
		<path fill="#FFFFFF" d="M137.2,380.6c0-3.2,2.4-5.7,5.8-5.7c3.2,0,5.7,2.4,5.7,6.1v0.8h-7.9c0.2,0.9,1.2,1.8,2.7,1.8
			c0.8,0,2-0.3,2.7-0.9l1.5,2.3c-1.1,0.9-2.9,1.5-4.6,1.5C139.9,386.3,137.2,384.1,137.2,380.6z M143.1,377.6
			c-1.5,0-2.1,0.9-2.3,1.7h4.6C145.3,378.5,144.7,377.6,143.1,377.6z"/>
		<path fill="#FFFFFF" d="M157.9,386.1v-6.4c0-1.3-0.7-1.8-1.8-1.8c-1,0-1.7,0.5-2.1,1.1v7.1h-3.5v-11h3.5v1.3
			c0.6-0.8,2-1.6,3.8-1.6c2.5,0,3.6,1.5,3.6,3.5v7.8H157.9L157.9,386.1z"/>
		<path fill="#FFFFFF" d="M164.7,383.1v-5h-1.8v-3h1.8v-3h3.5v3h2.2v3.1h-2.2v4c0,0.6,0.4,1.1,0.9,1.1c0.4,0,0.8-0.2,0.9-0.2
			l0.7,2.7c-0.5,0.4-1.3,0.7-2.6,0.7C165.9,386.3,164.7,385.2,164.7,383.1z"/>
		<path fill="#FFFFFF" d="M177.7,372c0-1.1,0.9-2,2-2s2,0.9,2,2s-0.9,2-2,2C178.6,374,177.7,373.2,177.7,372z M178,386.1v-11h3.5v11
			H178z"/>
		<path fill="#FFFFFF" d="M183.1,384.6l1.5-2.5c0.8,0.7,2.6,1.5,3.8,1.5c1,0,1.5-0.3,1.5-0.8c0-1.3-6.4,0.1-6.4-4.4
			c0-2,1.6-3.6,4.7-3.6c1.9,0,3.5,0.6,4.6,1.5l-1.3,2.5c-0.6-0.6-1.9-1.2-3.2-1.2c-0.8,0-1.3,0.3-1.3,0.8c0,1.2,6.4-0.1,6.4,4.5
			c0,2.1-1.8,3.6-5,3.6C186.3,386.3,184.3,385.7,183.1,384.6z"/>
		<path fill="#FFFFFF" d="M208.3,386.1v-1.3c-0.9,1-2,1.6-3.2,1.6c-2.7,0-4.9-2-4.9-5.8c0-3.6,2.1-5.7,4.9-5.7
			c1.2,0,2.4,0.5,3.2,1.6V371h3.5v15.2h-3.5V386.1z M208.3,382.2v-3.4c-0.5-0.6-1.3-0.9-2.1-0.9c-1.4,0-2.4,1-2.4,2.7
			c0,1.6,1,2.7,2.4,2.7C207,383.2,207.8,382.8,208.3,382.2z"/>
		<path fill="#FFFFFF" d="M221.8,386.1v-1.3c-0.7,0.8-2,1.6-3.8,1.6c-2.5,0-3.6-1.4-3.6-3.5V375h3.5v6.4c0,1.3,0.7,1.8,1.8,1.8
			c1,0,1.6-0.5,2.1-1.1v-7h3.5v11L221.8,386.1L221.8,386.1z"/>
		<path fill="#FFFFFF" d="M227.2,380.6c0-3.2,2.4-5.7,5.8-5.7c3.2,0,5.7,2.4,5.7,6.1v0.8h-7.9c0.2,0.9,1.2,1.8,2.7,1.8
			c0.8,0,2-0.3,2.7-0.9l1.5,2.3c-1.1,0.9-2.9,1.5-4.6,1.5C229.7,386.3,227.2,384.1,227.2,380.6z M233,377.6c-1.5,0-2.1,0.9-2.3,1.7
			h4.6C235.2,378.5,234.6,377.6,233,377.6z"/>
		<path fill="#FFFFFF" d="M239.9,384.2c0-1.2,1-2.1,2.2-2.1s2.1,0.9,2.1,2.1s-0.9,2.1-2.1,2.1C240.9,386.3,239.9,385.3,239.9,384.2z
			"/>
	</g>
	<text transform="matrix(1 0 0 1 27.3315 321.2432)" fill="#9D9E9B" font-family="'ProximaNova-Light'" font-size="18.8509"> </text>
</g>
</svg>
