<?xml version="1.0" encoding="utf-8"?>
<!-- Generator: Adobe Illustrator 18.1.1, SVG Export Plug-In . SVG Version: 6.00 Build 0)  -->
<svg version="1.1" xmlns="http://www.w3.org/2000/svg" xmlns:xlink="http://www.w3.org/1999/xlink" x="0px" y="0px"
	 viewBox="0 0 150 150" enable-background="new 0 0 150 150" xml:space="preserve">
<g id="Guides">
</g>
<g id="Layer_1">
	<rect fill="#FFFFFF" width="150" height="150"/>
	<path fill="#302F29" d="M134.7,124H15.3L75,20.7L134.7,124z M25.7,118h98.5L75,32.7L25.7,118z"/>
	<circle fill="#F05845" cx="75" cy="29.7" r="18.8"/>
	<path fill="#302F29" d="M75,51.7c-12.1,0-22-9.9-22-22s9.9-22,22-22s22,9.9,22,22S87.1,51.7,75,51.7z M75,14
		c-8.7,0-15.7,7-15.7,15.7s7,15.7,15.7,15.7s15.7-7,15.7-15.7S83.7,14,75,14z"/>
	<circle fill="#302F29" cx="75" cy="29.7" r="6.6"/>
	<circle fill="#00B4BB" cx="125.3" cy="115.2" r="18.8"/>
	<path fill="#302F29" d="M125.3,137.2c-12.1,0-22-9.9-22-22s9.9-22,22-22s22,9.9,22,22S137.4,137.2,125.3,137.2z M125.3,99.5
		c-8.7,0-15.7,7-15.7,15.7c0,8.7,7,15.7,15.7,15.7s15.7-7,15.7-15.7C141,106.5,134,99.5,125.3,99.5z"/>
	<circle fill="#302F29" cx="125.3" cy="115.2" r="6.6"/>
	<circle fill="#FFB600" cx="24.7" cy="115.2" r="18.8"/>
	<path fill="#302F29" d="M24.7,137.2c-12.1,0-22-9.9-22-22s9.9-22,22-22s22,9.9,22,22S36.8,137.2,24.7,137.2z M24.7,99.5
		c-8.7,0-15.7,7-15.7,15.7c0,8.7,7,15.7,15.7,15.7s15.7-7,15.7-15.7C40.4,106.5,33.4,99.5,24.7,99.5z"/>
	<circle fill="#302F29" cx="24.7" cy="115.2" r="6.6"/>
</g>
</svg>
