<?xml version="1.0" encoding="utf-8"?>
<!-- Generator: Adobe Illustrator 18.1.1, SVG Export Plug-In . SVG Version: 6.00 Build 0)  -->
<svg version="1.1" xmlns="http://www.w3.org/2000/svg" xmlns:xlink="http://www.w3.org/1999/xlink" x="0px" y="0px"
	 viewBox="0 0 150 150" enable-background="new 0 0 150 150" xml:space="preserve">
<g id="Guides">
</g>
<g id="Layer_1">
	<rect fill="#FFFFFF" width="150" height="150"/>
	<rect x="45.1" y="52.5" fill="#FFFFFF" width="81.2" height="79.7"/>
	<path fill="#302F29" d="M120.3,58.5v67.7H51.1V58.5H120.3 M126.3,52.5H45.1v79.7h81.2V52.5L126.3,52.5z"/>
	<rect x="51.1" y="34.6" fill="#FFFFFF" width="81.2" height="79.7"/>
	<path fill="#302F29" d="M126.3,40.6v67.7H57.1V40.6H126.3 M132.3,34.6H51.1v79.7h81.2V34.6L132.3,34.6z"/>
	<rect x="57.1" y="16.7" fill="#FFFFFF" width="81.2" height="79.7"/>
	<path fill="#302F29" d="M132.3,22.7v67.7H63.1V22.7H132.3 M138.3,16.7H57.1v79.7h81.2V16.7L138.3,16.7z"/>
	<g>
		<polygon fill="#4CB75C" points="58.3,83.4 86.7,93.7 86.7,129.2 11.7,129.2 11.7,93.7 40.2,83.4 		"/>
		<path fill="#302F29" d="M89.9,132.3H8.6V91.5l31-11.2h19.2l31,11.2V132.3z M14.8,126h68.7V95.9l-25.9-9.3h-17l-25.9,9.3V126z"/>
	</g>
	<g>
		<path fill="#FFFFFF" d="M74.4,65.1c-0.5,1.5-1.4,2.7-2.4,4c-1.2,1.6-2.4,3.2-3.8,4.5c-1.2,1.1-2.6,2-3.8,3
			c-1.7,1.5-3.1,3.3-4.1,5.4c-5.1,0.7-9.7,4.5-14.7,3.5c-1.9-0.4-3.7-1.5-5.6-1.8c-1.1-0.1-2.2,0-3.2-0.4c-1.4-0.5-2.3-1.9-3-3.2
			c-3.1-5.4-5.5-11.1-7.8-16.9c-0.7-1.7-1.4-3.3-1.9-5c-1.8-6.3-1-13.4,2.3-19.1c4.7,0,9.4-0.4,14-1.3c2.6-0.5,5.2-1.2,7.4-2.7
			c2.1-1.3,3.9-3.4,6.3-3.6c2.5-0.2,4.6,1.5,7,2.2c1.2,0.4,2.4,0.5,3.5,1.1c1.9,1,3.1,3.1,5.1,3.5c0.6,0.1,1.2,0.1,1.8,0.3
			c1.6,0.5,2.2,2.5,2.4,4.1c0.9,5.8,1.2,11.8,1.1,17.7C74.9,61.9,74.9,63.6,74.4,65.1z"/>
		<path fill="#9D9E9B" d="M37,18.4c5.1-2.5,11-2.9,16.6-2.8c1.8,0,3.7,0.1,5.4,0.7c2,0.6,3.7,1.9,5.3,3.2c5.2,4.5,9.4,10.9,9,17.7
			c0,0.3-0.1,0.6-0.2,0.9c-0.3,0.4-0.9,0.6-1.4,0.6c-6.4,0.4-11.9-6.1-18.3-5.6c-4.1,0.3-7.4,3.4-11.2,5.1c-4.4,1.9-9.3,1.7-14,1.5
			c-1.3,0-2.8-0.2-3.4-1.4c-0.3-0.6-0.3-1.3-0.2-2c0.4-3.4,1.6-6.6,3.4-9.5C30.1,23.3,33.3,20.2,37,18.4z"/>
		<path fill="#302F29" d="M48.9,89.7c-17.7,0-29-22.9-29-38.6c0-25.6,9.7-38.6,29-38.6c19.5,0,29,12.6,29,38.6
			c0,8.3-2.9,17.7-7.6,25.1C64.6,84.9,57,89.7,48.9,89.7z M48.9,18.8c-20.3,0-22.7,18.4-22.7,32.3c0,7,2.5,15.2,6.6,21.6
			c2.6,4,8.1,10.7,16,10.7c13.6,0,22.7-19.5,22.7-32.3C71.6,28.4,64.8,18.8,48.9,18.8z"/>
		<path fill="#302F29" d="M28.3,42.4c-1.1,0-2.3,0-3.4-0.1l0.3-6.3c16,0.7,24.2-3.8,28.3-7.6c3.9-3.7,4.8-7.5,4.8-8.2l6.3,0
			c0,2.2-1.4,7.6-6.6,12.6C53.3,37.3,44.5,42.4,28.3,42.4z"/>
		<path fill="#302F29" d="M74,42.4c-10,0-18.8-8.5-19.2-8.9l4.4-4.5c0.1,0.1,6.8,7,14.8,7V42.4z"/>
	</g>
	<g>
		<rect x="86" y="36" fill="#9D9E9B" width="17" height="6"/>
		<rect x="109" y="36" fill="#9D9E9B" width="17" height="6"/>
	</g>
	<g>
		<rect x="86" y="60" fill="#9D9E9B" width="17" height="6"/>
		<rect x="109" y="60" fill="#9D9E9B" width="17" height="6"/>
	</g>
	<g>
		<rect x="86" y="72" fill="#9D9E9B" width="17" height="6"/>
		<rect x="109" y="72" fill="#9D9E9B" width="17" height="6"/>
	</g>
	<g>
		<rect x="86" y="48" fill="#9D9E9B" width="17" height="6"/>
		<rect x="109" y="48" fill="#9D9E9B" width="17" height="6"/>
	</g>
</g>
</svg>
