<?xml version="1.0" encoding="utf-8"?>
<!-- Generator: Adobe Illustrator 18.1.1, SVG Export Plug-In . SVG Version: 6.00 Build 0)  -->
<svg version="1.1" xmlns="http://www.w3.org/2000/svg" xmlns:xlink="http://www.w3.org/1999/xlink" x="0px" y="0px"
	 viewBox="0 0 150 150" enable-background="new 0 0 150 150" xml:space="preserve">
<g id="Guides">
</g>
<g id="Layer_1">
	<rect fill="#FFFFFF" width="150" height="150"/>
	<path fill="#302F29" d="M15.1,69.4c0-14.8,5.3-28.6,15-39.6l0.2,18.5l4.5,0l-0.2-27L7.6,23.4l0.4,4.5l17-1.4
		C14.7,38.5,9.1,53.5,9.1,69.4c0,20.6,9.3,39.6,25.6,52.1l3.7-4.7C23.6,105.3,15.1,88,15.1,69.4z"/>
	<path fill="#302F29" d="M140.8,69.4c0-20.8-10-40.6-26.7-53l-3.6,4.8c15.2,11.3,24.3,29.3,24.3,48.2c0,23.3-13.2,44.1-34,54
		l7.1-17.2l-4.2-1.7l-10.3,25l25.7,8.4l1.4-4.3l-16.2-5.3C126.7,117.2,140.8,94.7,140.8,69.4z"/>
	<polygon fill="#FFB600" points="99.9,15 53.9,15 34.3,84 68.2,84 58.2,130.2 117.8,62 84.9,62 	"/>
	<path fill="#302F29" d="M52.8,140.9L64.5,87H30.3l21.3-75H104L89,59h35.4L52.8,140.9z M38.2,81h33.7l-8.3,38.5L111.2,65H80.8l15-47
		H56.1L38.2,81z"/>
</g>
</svg>
